Input #0, mov,mp4,m4a,3gp,3g2,mj2, from '/home/hbattu/projects/huberman-gpt/huberman-audio/mp3/tmp2ohz9m1m.mp4':
  Metadata:
    major_brand     : dash
    minor_version   : 0
    compatible_brands: iso6mp41
    creation_time   : 2022-07-22T03:25:08.000000Z
  Duration: 02:17:37.74, start: 0.000000, bitrate: 129 kb/s
    Stream #0:0(eng): Audio: aac (LC) (mp4a / 0x6134706D), 44100 Hz, stereo, fltp, 0 kb/s (default)
    Metadata:
      creation_time   : 2022-07-22T03:25:08.000000Z
      handler_name    : ISO Media file produced by Google Inc.
Stream mapping:
  Stream #0:0 -> #0:0 (aac (native) -> mp3 (libmp3lame))
Press [q] to stop, [?] for help
[graph_0_in_0_0 @ 0x5602741940c0] tb:1/44100 samplefmt:fltp samplerate:44100 chlayout:0x3
Output #0, mp3, to '../huberman-audio/mp3/UChhXiFPRgg.mp3':
  Metadata:
    major_brand     : dash
    minor_version   : 0
    compatible_brands: iso6mp41
    TSSE            : Lavf58.29.100
    Stream #0:0(eng): Audio: mp3 (libmp3lame), 44100 Hz, stereo, fltp, delay 1105 (default)
    Metadata:
      creation_time   : 2022-07-22T03:25:08.000000Z
      handler_name    : ISO Media file produced by Google Inc.
      encoder         : Lavc58.54.100 libmp3lame
No more output streams to write to, finishing.
size=  129028kB time=02:17:37.75 bitrate= 128.0kbits/s speed=97.4x    
[AVIOContext @ 0x560274156900] Statistics: 0 seeks, 170 writeouts
video:0kB audio:129028kB subtitle:0kB other streams:0kB global headers:0kB muxing overhead: 0.000262%
Input file #0 (/home/hbattu/projects/huberman-gpt/huberman-audio/mp3/tmp2ohz9m1m.mp4):
  Input stream #0:0 (audio): 355631 packets read (132123771 bytes); 355631 frames decoded (364166144 samples); 
  Total: 355631 packets (132123771 bytes) demuxed
Output file #0 (../huberman-audio/mp3/UChhXiFPRgg.mp3):
  Output stream #0:0 (audio): 316117 frames encoded (364166144 samples); 316118 packets muxed (132124421 bytes); 
  Total: 316118 packets (132124421 bytes) muxed
[AVIOContext @ 0x5602741850c0] Statistics: 2 seeks, 506 writeouts
[AVIOContext @ 0x56027415f880] Statistics: 133643007 bytes read, 0 seeks
